<svg xmlns="http://www.w3.org/2000/svg" viewBox="0 0 96 96">
  <!-- Original emblem: crossed sword + shield heraldry (SwSh). -->
  <g transform="rotate(-40 40 48)">
    <rect x="37" y="12" width="6" height="46" rx="2" fill="#bfe8f5" stroke="#00a2d8" stroke-width="2.5"/>
    <path d="M40 4 L46 14 L34 14 Z" fill="#bfe8f5" stroke="#00a2d8" stroke-width="2.5" stroke-linejoin="round"/>
    <rect x="30" y="56" width="20" height="6" rx="3" fill="#00a2d8"/>
    <rect x="37.5" y="62" width="5" height="12" rx="2.5" fill="#0b6f92"/>
  </g>
  <path d="M62 34 c8 5 16 5 22 3 v18 c0 12 -9 19 -11 20 c-2 -1 -11 -8 -11 -20 v-18 c-0 -1 -0 -2 0 -3 Z"
        fill="#e88bb0" stroke="#c92a63" stroke-width="3" stroke-linejoin="round" transform="translate(-4 0)"/>
  <path d="M69 46 h12 M75 40 v18" stroke="#fbe0eb" stroke-width="3.5" stroke-linecap="round"/>
</svg>
